# xmcd
#
# Track frame offsets:
#	150
#	19150
#	41327
#	59945
#	78732
#	101722
#	107625
#	126087
#	141745
#	162607
#	180925
#	195812
#
# Disc length: 2882 seconds
#
# Revision: 1
# Processed by: cddbd v1.5.1PL0 Copyright (c) Steve Scherf et al.
# Submitted via: CDex 1.50Beta5
#
DISCID=a90b400c
DTITLE=織田哲郎 - SEASON
DYEAR=1988
DGENRE=Pop
TTITLE0=SEASON
TTITLE1=夜の影
TTITLE2=夏のかけら
TTITLE3=MESSAGE IN THE AIR
TTITLE4=時の河辺
TTITLE5=マジョリカ
TTITLE6=HOT NIGHT!?
TTITLE7=LITTLE BIT OF LOVE
TTITLE8=5月の風景
TTITLE9=LOVERS
TTITLE10=YOU ARE NOT ALONE
TTITLE11=SHELTER OF SOUL
EXTD=
EXTT0=
EXTT1=
EXTT2=
EXTT3=
EXTT4=
EXTT5=
EXTT6=
EXTT7=
EXTT8=
EXTT9=
EXTT10=
EXTT11=
PLAYORDER=
